<svg width="45" height="45" viewBox="0 0 45 45" fill="none" xmlns="http://www.w3.org/2000/svg">
<path d="M45 22.5C45 34.9264 34.9264 45 22.5 45C10.0736 45 0 34.9264 0 22.5C0 10.0736 10.0736 0 22.5 0C34.9264 0 45 10.0736 45 22.5Z" fill="white"/>
<path d="M24.5957 15.7617L23.6973 30.0977L19.2441 30.293L19.2832 22.7344L17.2715 28.8281H15.5527L14.0098 23.3789L13.9902 29.707L9.47852 29.8438L9.67383 16.3477L14.6934 16.1523L16.6855 22.6172L19.3418 15.7617H24.5957Z" fill="#2F5978"/>
<path d="M34.4922 30L30.5859 30.1875L30.5547 26.5781H28.7578L28.6484 30H25.1484L25.4453 19.0156L29.1641 19.1875L28.9297 24.7969H30.6641L30.6797 18.7656L34.2422 18.8594L34.4922 30Z" fill="#2F5978"/>
</svg>
