<svg width="24" height="24" viewBox="0 0 24 24" fill="none" xmlns="http://www.w3.org/2000/svg">
<path d="M24 12C24 5.376 18.624 0 12 0C5.376 0 0 5.376 0 12C0 18.624 5.376 24 12 24C18.624 24 24 18.624 24 12ZM12 15.348V13.2H8.4C7.74 13.2 7.2 12.66 7.2 12C7.2 11.34 7.74 10.8 8.4 10.8H12V8.652C12 8.112 12.648 7.848 13.02 8.232L16.368 11.58C16.608 11.82 16.608 12.192 16.368 12.432L13.02 15.78C12.9354 15.8629 12.8282 15.919 12.7118 15.941C12.5954 15.9631 12.4751 15.9502 12.366 15.904C12.2569 15.8578 12.164 15.7804 12.0988 15.6814C12.0337 15.5825 11.9993 15.4665 12 15.348Z" fill="#2F5978"/>
</svg>
