<svg width="21" height="16" viewBox="0 0 21 16" fill="none" xmlns="http://www.w3.org/2000/svg">
<path d="M3.5 5.875C3.25208 5.875 3.04442 5.791 2.877 5.623C2.709 5.45558 2.625 5.24792 2.625 5C2.625 4.75208 2.709 4.54413 2.877 4.37613C3.04442 4.20871 3.25208 4.125 3.5 4.125H6.125C6.60625 4.125 7.01808 4.29621 7.3605 4.63863C7.7035 4.98163 7.875 5.39375 7.875 5.875H3.5ZM5.25 13.75C5.97917 13.75 6.59896 13.4948 7.10938 12.9844C7.61979 12.474 7.875 11.8542 7.875 11.125C7.875 10.3958 7.61979 9.77604 7.10938 9.26562C6.59896 8.75521 5.97917 8.5 5.25 8.5C4.52083 8.5 3.90104 8.75521 3.39062 9.26562C2.88021 9.77604 2.625 10.3958 2.625 11.125C2.625 11.8542 2.88021 12.474 3.39062 12.9844C3.90104 13.4948 4.52083 13.75 5.25 13.75ZM17.0625 13.75C17.4271 13.75 17.7368 13.6223 17.9918 13.3668C18.2472 13.1118 18.375 12.8021 18.375 12.4375C18.375 12.0729 18.2472 11.7632 17.9918 11.5082C17.7368 11.2527 17.4271 11.125 17.0625 11.125C16.6979 11.125 16.3882 11.2527 16.1332 11.5082C15.8777 11.7632 15.75 12.0729 15.75 12.4375C15.75 12.8021 15.8777 13.1118 16.1332 13.3668C16.3882 13.6223 16.6979 13.75 17.0625 13.75ZM5.25 12.4375C4.88542 12.4375 4.57567 12.3098 4.32075 12.0543C4.06525 11.7993 3.9375 11.4896 3.9375 11.125C3.9375 10.7604 4.06525 10.4507 4.32075 10.1957C4.57567 9.94025 4.88542 9.8125 5.25 9.8125C5.61458 9.8125 5.92433 9.94025 6.17925 10.1957C6.43475 10.4507 6.5625 10.7604 6.5625 11.125C6.5625 11.4896 6.43475 11.7993 6.17925 12.0543C5.92433 12.3098 5.61458 12.4375 5.25 12.4375ZM17.5 9.39687C17.8792 9.46979 18.1927 9.56808 18.4406 9.69175C18.6885 9.816 18.9583 10.0167 19.25 10.2937V5C19.25 4.51875 19.0788 4.10692 18.7364 3.7645C18.3934 3.4215 17.9813 3.25 17.5 3.25H11.9875L11.0687 2.2875L11.9875 1.36875C12.075 1.28125 12.1188 1.17917 12.1188 1.0625C12.1188 0.945833 12.075 0.84375 11.9875 0.75625C11.9 0.66875 11.7979 0.625 11.6813 0.625C11.5646 0.625 11.4625 0.66875 11.375 0.75625L8.90312 3.22812C8.81563 3.31562 8.77187 3.4215 8.77187 3.54575C8.77187 3.66942 8.82292 3.775 8.925 3.8625C9.0125 3.95 9.11458 3.99375 9.23125 3.99375C9.34792 3.99375 9.45 3.95 9.5375 3.8625L10.4563 2.94375L11.375 3.8625V5.875C11.375 6.35625 11.2038 6.76808 10.8614 7.1105C10.5184 7.4535 10.1062 7.625 9.625 7.625H7.85313C8.18854 7.87292 8.45833 8.12813 8.6625 8.39062C8.86667 8.65312 9.07083 8.98125 9.275 9.375H9.625C10.5875 9.375 11.4115 9.03229 12.0969 8.34687C12.7823 7.66146 13.125 6.8375 13.125 5.875V5H17.5V9.39687ZM14.0219 12C14.1094 11.6062 14.2153 11.2889 14.3395 11.048C14.4632 10.8077 14.6562 10.5417 14.9187 10.25H9.5375C9.59583 10.5854 9.625 10.8771 9.625 11.125C9.625 11.3729 9.59583 11.6646 9.5375 12H14.0219ZM17.0625 15.5C16.2167 15.5 15.4948 15.201 14.8969 14.6031C14.299 14.0052 14 13.2833 14 12.4375C14 11.5917 14.299 10.8698 14.8969 10.2719C15.4948 9.67396 16.2167 9.375 17.0625 9.375C17.9083 9.375 18.6302 9.67396 19.2281 10.2719C19.826 10.8698 20.125 11.5917 20.125 12.4375C20.125 13.2833 19.826 14.0052 19.2281 14.6031C18.6302 15.201 17.9083 15.5 17.0625 15.5ZM5.25 15.5C4.03958 15.5 3.00796 15.0736 2.15513 14.2207C1.30171 13.3673 0.875 12.3354 0.875 11.125C0.875 9.91458 1.30171 8.88267 2.15513 8.02925C3.00796 7.17642 4.03958 6.75 5.25 6.75C6.46042 6.75 7.49233 7.17642 8.34575 8.02925C9.19858 8.88267 9.625 9.91458 9.625 11.125C9.625 12.3354 9.19858 13.3673 8.34575 14.2207C7.49233 15.0736 6.46042 15.5 5.25 15.5Z" fill="currentColor"/>
</svg>
