<svg width="25" height="17" viewBox="0 0 25 17" fill="none" xmlns="http://www.w3.org/2000/svg">
<path d="M1.5 16.75H23.5C24.2563 16.75 24.875 16.1313 24.875 15.375C24.875 14.6187 24.2563 14 23.5 14H1.5C0.74375 14 0.125 14.6187 0.125 15.375C0.125 16.1313 0.74375 16.75 1.5 16.75ZM1.5 9.875H23.5C24.2563 9.875 24.875 9.25625 24.875 8.5C24.875 7.74375 24.2563 7.125 23.5 7.125H1.5C0.74375 7.125 0.125 7.74375 0.125 8.5C0.125 9.25625 0.74375 9.875 1.5 9.875ZM0.125 1.625C0.125 2.38125 0.74375 3 1.5 3H23.5C24.2563 3 24.875 2.38125 24.875 1.625C24.875 0.86875 24.2563 0.25 23.5 0.25H1.5C0.74375 0.25 0.125 0.86875 0.125 1.625Z" fill="white"/>
</svg>
