<svg width="9" height="17" viewBox="0 0 9 17" fill="none" xmlns="http://www.w3.org/2000/svg">
<path d="M4.52176 16.375C4.27384 16.375 4.06589 16.291 3.89789 16.123C3.72989 15.955 3.64618 15.7473 3.64676 15.5V14.4938C2.99051 14.3479 2.41447 14.0927 1.91864 13.7281C1.4228 13.3635 1.02176 12.8531 0.715511 12.1969C0.613428 11.9927 0.609928 11.7775 0.705011 11.5511C0.800094 11.3248 0.971303 11.1609 1.21864 11.0594C1.4228 10.9719 1.63426 10.9757 1.85301 11.0708C2.07176 11.1658 2.23947 11.3225 2.35614 11.5406C2.60405 11.9781 2.91759 12.3098 3.29676 12.5355C3.67593 12.7613 4.14259 12.8744 4.69676 12.875C5.29468 12.875 5.8013 12.74 6.21664 12.4699C6.63197 12.1998 6.83993 11.7807 6.84051 11.2125C6.84051 10.7021 6.68009 10.2975 6.35926 9.99888C6.03843 9.70021 5.29468 9.361 4.12801 8.98125C2.87384 8.5875 2.01343 8.11704 1.54676 7.56988C1.08009 7.02271 0.846761 6.35567 0.846761 5.56875C0.846761 4.62084 1.15301 3.88438 1.76551 3.35938C2.37801 2.83438 3.00509 2.53542 3.64676 2.4625V1.5C3.64676 1.25209 3.73076 1.04413 3.89876 0.876128C4.06676 0.708128 4.27414 0.62442 4.52089 0.625003C4.7688 0.625003 4.97676 0.709003 5.14476 0.877003C5.31276 1.045 5.39647 1.25267 5.39589 1.5V2.4625C5.95005 2.55 6.4313 2.72879 6.83964 2.99888C7.24797 3.26896 7.58339 3.60059 7.84589 3.99375C7.97714 4.18334 8.0028 4.39479 7.92289 4.62813C7.84297 4.86146 7.67876 5.02917 7.43026 5.13125C7.22609 5.21875 7.01464 5.22254 6.79589 5.14263C6.57714 5.06271 6.37297 4.92038 6.18339 4.71563C5.9938 4.51146 5.77126 4.35484 5.51576 4.24575C5.26026 4.13667 4.94322 4.08184 4.56464 4.08125C3.92297 4.08125 3.43443 4.22359 3.09901 4.50825C2.76359 4.79292 2.59618 5.14642 2.59676 5.56875C2.59676 6.05 2.81551 6.42917 3.25301 6.70625C3.69051 6.98334 4.44884 7.275 5.52801 7.58125C6.53426 7.87292 7.29639 8.33609 7.81439 8.97075C8.33239 9.60542 8.59109 10.3381 8.59051 11.1688C8.59051 12.2042 8.28426 12.9917 7.67176 13.5313C7.05926 14.0708 6.30093 14.4063 5.39676 14.5375V15.5C5.39676 15.7479 5.31276 15.9559 5.14476 16.1239C4.97676 16.2919 4.76909 16.3756 4.52176 16.375Z" fill="currentColor"/>
</svg>
