<svg width="12" height="12" viewBox="0 0 12 12" fill="none" xmlns="http://www.w3.org/2000/svg">
<path d="M11.7883 6.51L9.26863 9.03C9.20161 9.0968 9.12207 9.14974 9.03457 9.18577C8.94708 9.2218 8.85333 9.24023 8.75871 9.24C8.56786 9.23917 8.38488 9.16382 8.24879 9.03C8.18167 8.96311 8.12842 8.88363 8.09209 8.79611C8.05575 8.70859 8.03705 8.61476 8.03705 8.52C8.03705 8.42524 8.05575 8.33141 8.09209 8.24389C8.12842 8.15637 8.18167 8.07689 8.24879 8.01L9.5386 6.72H4.55933C4.3684 6.72 4.18529 6.64414 4.05029 6.50912C3.91528 6.37409 3.83943 6.19096 3.83943 6C3.83943 5.80904 3.91528 5.62591 4.05029 5.49088C4.18529 5.35586 4.3684 5.28 4.55933 5.28H9.5386L8.24879 3.99C8.11354 3.85474 8.03757 3.67129 8.03757 3.48C8.03757 3.28871 8.11354 3.10526 8.24879 2.97C8.38403 2.83474 8.56745 2.75875 8.75871 2.75875C8.94997 2.75875 9.13339 2.83474 9.26863 2.97L11.7883 5.49C11.8554 5.55689 11.9086 5.63637 11.945 5.72389C11.9813 5.81141 12 5.90524 12 6C12 6.09476 11.9813 6.18859 11.945 6.27611C11.9086 6.36363 11.8554 6.44311 11.7883 6.51ZM4.55933 10.56H1.43979V1.44H4.55933C4.75026 1.44 4.93336 1.36414 5.06837 1.22912C5.20338 1.09409 5.27922 0.910956 5.27922 0.72C5.27922 0.529044 5.20338 0.345909 5.06837 0.210883C4.93336 0.0758569 4.75026 0 4.55933 0H1.19982C0.882096 0.00157707 0.577832 0.128512 0.353162 0.353214C0.128493 0.577917 0.00157684 0.882226 0 1.2V10.8C0.00157684 11.1178 0.128493 11.4221 0.353162 11.6468C0.577832 11.8715 0.882096 11.9984 1.19982 12H4.55933C4.75026 12 4.93336 11.9241 5.06837 11.7891C5.20338 11.6541 5.27922 11.471 5.27922 11.28C5.27922 11.089 5.20338 10.9059 5.06837 10.7709C4.93336 10.6359 4.75026 10.56 4.55933 10.56Z" fill="currentColor"/>
</svg>
