<svg width="23" height="23" viewBox="0 0 23 23" fill="none" xmlns="http://www.w3.org/2000/svg">
<path d="M11.5004 15.8179C9.82654 15.8145 8.15858 15.2541 6.81293 14.2056V14.4438H6.32575H6.32575H6.31293C6.3142 14.4448 6.31532 14.4461 6.31644 14.4473C6.31755 14.4485 6.31867 14.4498 6.31994 14.4508C7.78566 15.6649 9.63925 16.3143 11.5 16.3179M11.5004 15.8179C11.5002 15.8179 11.5 15.8179 11.4998 15.8179L11.5 16.3179M11.5004 15.8179C13.2097 15.8171 14.8656 15.2317 16.1871 14.2051M11.5004 15.8179C11.5006 15.8179 11.5008 15.8179 11.501 15.8179L11.5 16.3179M11.5 16.3179C13.4039 16.3172 15.2434 15.6366 16.6801 14.4508C16.6814 14.4497 16.6825 14.4485 16.6837 14.4472C16.6848 14.446 16.6858 14.4448 16.6871 14.4438V1.846C16.6858 1.84495 16.6847 1.84372 16.6836 1.84249C16.6825 1.84126 16.6813 1.84004 16.6801 1.83898C16.348 1.56394 15.9945 1.32122 15.6261 1.10713L16.1871 14.2051M16.1871 14.2051V2.08463C16.0064 1.94468 15.8191 1.81393 15.6261 1.6918V3.41124V3.91124H15.1261H13.8626H13.3626V3.41124V0.714166C13.1242 0.652711 12.8841 0.602184 12.643 0.563734" fill="white" stroke="#1B2D41"/>
</svg>
