<svg width="26" height="26" viewBox="0 0 26 26" fill="none" xmlns="http://www.w3.org/2000/svg">
<path d="M21.077 4.95703H4.92143C4.33689 4.95703 3.93164 5.10333 3.64417 5.29718C3.35329 5.49333 3.15262 5.75889 3.01341 6.0405C2.8733 6.32395 2.80075 6.61353 2.764 6.83654C2.74582 6.94684 2.73693 7.03769 2.73259 7.09902C2.73043 7.12961 2.72943 7.1526 2.72896 7.16672L2.7286 7.181C2.72859 7.18151 2.72858 7.18191 2.72857 7.18221M21.077 4.95703C21.0773 4.95703 21.0777 4.95704 21.0781 4.95705L21.092 4.95741C21.1057 4.95788 21.1282 4.95888 21.1583 4.96105C21.2184 4.9654 21.3077 4.97435 21.4162 4.99263C21.6355 5.02961 21.9204 5.10262 22.1994 5.24369C22.4762 5.38371 22.7387 5.58617 22.9332 5.8813C23.1258 6.17357 23.2714 6.58622 23.2714 7.18084V15.3507M21.077 4.95703C21.0766 4.95703 21.0765 4.95703 21.0765 4.95703L21.0771 4.95703L21.0777 4.95703L21.0781 4.95703C21.0783 4.95703 21.0786 4.95703 21.0786 4.45703M21.077 4.95703H21.0786V4.45703M2.72857 7.18221L2.72858 7.18169L2.72858 7.18129C2.72858 7.18107 2.72858 7.18084 2.22858 7.18084M2.72857 7.18221L2.72857 7.18229L2.72857 7.18279L2.72858 7.18241C2.72858 7.18238 2.72858 7.18235 2.72858 7.18231M2.72857 7.18221C2.72857 7.18224 2.72858 7.18228 2.72858 7.18231M2.22858 7.18084H2.72858V7.18231M2.22858 7.18084C2.22858 7.18084 2.22858 4.45703 4.92143 4.45703H21.0786M2.22858 7.18084L23.7714 15.3523V7.18084C23.7714 4.45703 21.0786 4.45703 21.0786 4.45703M2.72858 7.18231V15.3523C2.72858 15.9469 2.87418 16.3595 3.06681 16.6518C3.26133 16.9469 3.52381 17.1494 3.80066 17.2894C4.07959 17.4305 4.36448 17.5035 4.58379 17.5405C4.69228 17.5588 4.78157 17.5677 4.84176 17.5721C4.87177 17.5742 4.89428 17.5752 4.90804 17.5757L4.92187 17.5761C4.92234 17.5761 4.92271 17.5761 4.92298 17.5761M4.92298 17.5761L4.9223 17.5761L4.92293 17.5761L4.92346 17.5761M4.92298 17.5761C4.92323 17.5761 4.92339 17.5761 4.92346 17.5761M4.92298 17.5761H21.0786C21.6631 17.5761 22.0684 17.4298 22.3558 17.2359C22.6467 17.0398 22.8474 16.7742 22.9866 16.4926C23.1267 16.2092 23.1993 15.9196 23.236 15.6966C23.2542 15.5863 23.2631 15.4954 23.2674 15.4341C23.2696 15.4035 23.2706 15.3805 23.271 15.3664L23.2714 15.3521C23.2714 15.3515 23.2714 15.351 23.2714 15.3507M4.92346 17.5761C4.9235 17.5761 4.92351 17.5761 4.9235 17.5761H4.92346ZM23.2714 15.3507L23.2714 15.3508L23.2714 15.3503C23.2714 15.3503 23.2714 15.3504 23.2714 15.3507ZM6.09465 20.1189C6.09465 20.0691 6.11427 20.0225 6.1474 19.989C6.18033 19.9556 6.22378 19.938 6.26786 19.938H19.7321C19.7762 19.938 19.8197 19.9556 19.8526 19.989C19.8857 20.0225 19.9054 20.0691 19.9054 20.1189C19.9054 20.1688 19.8857 20.2154 19.8526 20.2489C19.8197 20.2822 19.7762 20.2999 19.7321 20.2999H6.26786C6.22378 20.2999 6.18033 20.2822 6.1474 20.2489C6.11427 20.2154 6.09465 20.1688 6.09465 20.1189Z" fill="#EAEAEA" stroke="#292B2E"/>
<path d="M5.55658 8.44626C5.55658 8.24113 5.72287 8.07483 5.92801 8.07483H12.9406C13.1457 8.07483 13.312 8.24113 13.312 8.44626C13.312 8.6514 13.1457 8.81769 12.9406 8.81769H5.92801C5.72287 8.81769 5.55658 8.6514 5.55658 8.44626Z" fill="#292B2E"/>
<path d="M16.0001 8H20.0001V14H16.0001V8Z" fill="white"/>
<path d="M5.55658 11.0303C5.55658 10.8252 5.72287 10.6589 5.92801 10.6589H12.9406C13.1457 10.6589 13.312 10.8252 13.312 11.0303C13.312 11.2354 13.1457 11.4017 12.9406 11.4017H5.92801C5.72287 11.4017 5.55658 11.2354 5.55658 11.0303Z" fill="#292B2E"/>
<path d="M5.55658 13.6158C5.55658 13.4107 5.72287 13.2444 5.92801 13.2444H12.9406C13.1457 13.2444 13.312 13.4107 13.312 13.6158C13.312 13.8209 13.1457 13.9872 12.9406 13.9872H5.92801C5.72287 13.9872 5.55658 13.8209 5.55658 13.6158Z" fill="#292B2E"/>
<path d="M15.6 7.79916C15.6 7.59403 15.7663 7.42773 15.9714 7.42773C16.1766 7.42773 16.3429 7.59403 16.3429 7.79916V13.742C16.3429 13.9472 16.1766 14.1134 15.9714 14.1134C15.7663 14.1134 15.6 13.9472 15.6 13.742V7.79916Z" fill="#292B2E"/>
<path d="M15.9714 14.1134C15.7663 14.1134 15.6 13.9472 15.6 13.742C15.6 13.5369 15.7663 13.3706 15.9714 13.3706H20.4286C20.6337 13.3706 20.8 13.5369 20.8 13.742C20.8 13.9472 20.6337 14.1134 20.4286 14.1134L15.9714 14.1134Z" fill="#292B2E"/>
<path d="M15.9714 8.17059C15.7663 8.17059 15.6 8.0043 15.6 7.79916C15.6 7.59403 15.7663 7.42773 15.9714 7.42773L20.4286 7.42773C20.6337 7.42773 20.8 7.59403 20.8 7.79916C20.8 8.0043 20.6337 8.17059 20.4286 8.17059L15.9714 8.17059Z" fill="#292B2E"/>
<path d="M20.0572 7.79916C20.0572 7.59403 20.2235 7.42773 20.4286 7.42773C20.6337 7.42773 20.8 7.59403 20.8 7.79916V13.742C20.8 13.9472 20.6337 14.1134 20.4286 14.1134C20.2235 14.1134 20.0572 13.9472 20.0572 13.742V7.79916Z" fill="#292B2E"/>
</svg>
