<svg width="19" height="14" viewBox="0 0 19 14" fill="none" xmlns="http://www.w3.org/2000/svg">
<path d="M18.1688 7.60037C18.0668 7.67895 17.9412 7.72079 17.8125 7.71912C17.7203 7.71912 17.6294 7.69766 17.547 7.65643C17.4645 7.61521 17.3928 7.55536 17.3375 7.48162C16.9796 7.00058 16.5138 6.61028 15.9775 6.34215C15.4413 6.07402 14.8496 5.93554 14.25 5.93787C14.0925 5.93787 13.9415 5.87531 13.8302 5.76396C13.7188 5.65261 13.6563 5.50159 13.6563 5.34412C13.6563 5.18665 13.7188 5.03562 13.8302 4.92427C13.9415 4.81292 14.0925 4.75037 14.25 4.75037C14.5879 4.75001 14.9188 4.65353 15.2039 4.4722C15.4891 4.29087 15.7168 4.03217 15.8604 3.7263C16.0041 3.42042 16.0577 3.08 16.0152 2.74477C15.9726 2.40954 15.8356 2.09333 15.62 1.83306C15.4045 1.57279 15.1194 1.37919 14.798 1.27487C14.4766 1.17055 14.1321 1.15981 13.8048 1.24391C13.4775 1.328 13.1809 1.50346 12.9496 1.74981C12.7183 1.99615 12.5618 2.3032 12.4984 2.63513C12.4869 2.71451 12.4594 2.79072 12.4176 2.85918C12.3759 2.92764 12.3206 2.98692 12.2553 3.03345C12.19 3.07998 12.1159 3.11279 12.0376 3.12991C11.9592 3.14702 11.8782 3.14809 11.7994 3.13303C11.7206 3.11798 11.6457 3.08712 11.5792 3.04232C11.5127 2.99752 11.4559 2.93971 11.4123 2.87237C11.3688 2.80503 11.3393 2.72957 11.3257 2.65053C11.3121 2.57148 11.3147 2.49051 11.3332 2.41248C11.4213 1.95071 11.6178 1.51645 11.9065 1.14546C12.1952 0.774471 12.5679 0.477345 12.9939 0.278541C13.4199 0.0797361 13.887 -0.0150637 14.3568 0.00194375C14.8266 0.0189512 15.2856 0.14728 15.6961 0.376367C16.1066 0.605455 16.4568 0.928752 16.718 1.31965C16.9791 1.71055 17.1437 2.15787 17.1981 2.6248C17.2526 3.09173 17.1954 3.56492 17.0312 4.00543C16.8671 4.44593 16.6007 4.84116 16.2539 5.15857C17.0609 5.50847 17.762 6.06377 18.2875 6.76912C18.3343 6.8315 18.3683 6.90248 18.3877 6.97801C18.407 7.05354 18.4113 7.13215 18.4003 7.20934C18.3893 7.28653 18.3631 7.36079 18.3234 7.42788C18.2837 7.49497 18.2311 7.55358 18.1688 7.60037ZM14.0125 12.5062C14.0795 12.6482 14.0883 12.8108 14.037 12.9592C13.9857 13.1076 13.8783 13.2301 13.7379 13.3004C13.656 13.3368 13.5678 13.357 13.4781 13.3597C13.3669 13.359 13.258 13.3273 13.1637 13.2684C13.0693 13.2094 12.9932 13.1254 12.9438 13.0258C12.6014 12.3254 12.0692 11.7352 11.4079 11.3224C10.7466 10.9096 9.98271 10.6907 9.20313 10.6907C8.42355 10.6907 7.65963 10.9096 6.99832 11.3224C6.33701 11.7352 5.80488 12.3254 5.4625 13.0258C5.42843 13.096 5.38085 13.1588 5.32249 13.2106C5.26413 13.2624 5.19612 13.3022 5.12236 13.3277C5.0486 13.3532 4.97054 13.3639 4.89264 13.3592C4.81474 13.3545 4.73853 13.3345 4.66836 13.3004C4.52794 13.2301 4.42059 13.1076 4.36927 12.9592C4.31796 12.8108 4.32674 12.6482 4.39375 12.5062C4.94555 11.37 5.88149 10.4656 7.03594 9.9531C6.44502 9.50018 6.01086 8.87351 5.79445 8.16113C5.57803 7.44875 5.59025 6.68647 5.82938 5.98139C6.06851 5.27632 6.52253 4.66388 7.12766 4.23012C7.73279 3.79637 8.4586 3.56311 9.20313 3.56311C9.94765 3.56311 10.6735 3.79637 11.2786 4.23012C11.8837 4.66388 12.3377 5.27632 12.5769 5.98139C12.816 6.68647 12.8282 7.44875 12.6118 8.16113C12.3954 8.87351 11.9612 9.50018 11.3703 9.9531C12.5248 10.4656 13.4607 11.37 14.0125 12.5062ZM9.20313 9.50037C9.67286 9.50037 10.132 9.36108 10.5226 9.10011C10.9132 8.83914 11.2176 8.46821 11.3973 8.03424C11.5771 7.60027 11.6241 7.12273 11.5325 6.66203C11.4409 6.20132 11.2147 5.77814 10.8825 5.44599C10.5504 5.11384 10.1272 4.88764 9.66647 4.796C9.20576 4.70436 8.72823 4.7514 8.29425 4.93115C7.86028 5.11091 7.48936 5.41532 7.22839 5.80589C6.96742 6.19646 6.82813 6.65564 6.82813 7.12537C6.83008 7.75465 7.08094 8.35761 7.52591 8.80258C7.97089 9.24756 8.57384 9.49841 9.20313 9.50037ZM4.75 5.34412C4.75 5.18665 4.68745 5.03562 4.5761 4.92427C4.46475 4.81292 4.31372 4.75037 4.15625 4.75037C3.81833 4.75001 3.48748 4.65353 3.20233 4.4722C2.91718 4.29087 2.68949 4.03217 2.54585 3.7263C2.4022 3.42042 2.34853 3.08 2.39109 2.74477C2.43365 2.40954 2.57069 2.09333 2.78622 1.83306C3.00174 1.57279 3.28685 1.37919 3.60827 1.27487C3.92969 1.17055 4.27415 1.15981 4.60144 1.24391C4.92873 1.328 5.22535 1.50346 5.45666 1.74981C5.68798 1.99615 5.84445 2.3032 5.90781 2.63513C5.91934 2.71451 5.94682 2.79072 5.98861 2.85918C6.03039 2.92764 6.08561 2.98692 6.15094 3.03345C6.21627 3.07998 6.29034 3.11279 6.3687 3.12991C6.44706 3.14702 6.52807 3.14809 6.60685 3.13303C6.68562 3.11798 6.76054 3.08712 6.82706 3.04232C6.89359 2.99752 6.95034 2.93971 6.99391 2.87237C7.03748 2.80503 7.06696 2.72957 7.08056 2.65053C7.09416 2.57148 7.0916 2.49051 7.07305 2.41248C6.98496 1.95071 6.78848 1.51645 6.49976 1.14546C6.21105 0.774471 5.83836 0.477345 5.41237 0.278541C4.98638 0.0797361 4.51927 -0.0150637 4.04948 0.00194375C3.57969 0.0189512 3.12065 0.14728 2.71015 0.376367C2.29965 0.605455 1.94942 0.928752 1.68829 1.31965C1.42716 1.71055 1.26259 2.15787 1.20812 2.6248C1.15366 3.09173 1.21086 3.56492 1.37502 4.00543C1.53917 4.44593 1.80559 4.84116 2.15235 5.15857C1.34538 5.50847 0.644212 6.06377 0.118752 6.76912C0.024269 6.8951 -0.0163 7.05345 0.00596992 7.20934C0.0282399 7.36523 0.111525 7.50588 0.237502 7.60037C0.339486 7.67895 0.465016 7.72079 0.593752 7.71912C0.685929 7.71912 0.77684 7.69766 0.859286 7.65643C0.941731 7.61521 1.01345 7.55536 1.06875 7.48162C1.42663 7.00058 1.89244 6.61028 2.42871 6.34215C2.96497 6.07402 3.5567 5.93554 4.15625 5.93787C4.31372 5.93787 4.46475 5.87531 4.5761 5.76396C4.68745 5.65261 4.75 5.50159 4.75 5.34412Z" fill="currentColor"/>
</svg>
