<svg width="23" height="17" viewBox="0 0 23 17" fill="none" xmlns="http://www.w3.org/2000/svg">
<path d="M21.9527 3.21483L21.4695 3.34315L21.4696 3.3435L21.9527 3.21483ZM20.0237 1.27345L20.1552 0.791028L20.154 0.790712L20.0237 1.27345ZM2.97625 1.27345L2.84601 0.790711L2.84484 0.79103L2.97625 1.27345ZM1.04725 3.21483L1.53041 3.3435L1.5305 3.34315L1.04725 3.21483ZM0.591248 8.50008L0.0912476 8.50008L0.0912476 8.50008L0.591248 8.50008ZM1.04725 13.7857L1.5305 13.6574L1.53041 13.6571L1.04725 13.7857ZM2.97625 15.7271L2.84484 16.2095L2.84611 16.2098L2.97625 15.7271ZM11.5 16.1857L11.5 15.6857H11.5L11.5 16.1857ZM20.0237 15.7271L20.1539 16.2098L20.1552 16.2095L20.0237 15.7271ZM21.9527 13.7857L21.4696 13.6571L21.4695 13.6574L21.9527 13.7857ZM22.4087 8.50008L21.9087 8.50008L21.9087 8.50008L22.4087 8.50008ZM9.26875 11.7438H8.76875C8.76875 11.9219 8.86344 12.0865 9.01736 12.176C9.17128 12.2656 9.3612 12.2665 9.51597 12.1784L9.26875 11.7438ZM14.971 8.50008L15.2182 8.93468C15.3745 8.84579 15.471 8.67985 15.471 8.50008C15.471 8.3203 15.3745 8.15437 15.2182 8.06548L14.971 8.50008ZM9.26875 5.25633L9.51597 4.82173C9.3612 4.73368 9.17128 4.73459 9.01736 4.82412C8.86344 4.91364 8.76875 5.07827 8.76875 5.25633H9.26875ZM22.436 3.08651C22.2902 2.53761 22.0028 2.03663 21.6025 1.63377L20.8932 2.33861C21.17 2.61718 21.3687 2.96359 21.4695 3.34315L22.436 3.08651ZM21.6025 1.63377C21.2022 1.2309 20.7031 0.940288 20.1552 0.79103L19.8923 1.75588C20.2712 1.85909 20.6164 2.06004 20.8932 2.33861L21.6025 1.63377ZM20.154 0.790712C19.6764 0.661859 18.8858 0.573699 18.0108 0.509437C17.1216 0.444136 16.1013 0.400839 15.1388 0.372052C14.1755 0.34324 13.2662 0.328848 12.598 0.321654C12.2637 0.318056 11.9896 0.316256 11.7988 0.315355C11.7035 0.314905 11.6289 0.314679 11.5781 0.314566C11.5528 0.31451 11.5333 0.314482 11.5202 0.314467C11.5136 0.31446 11.5086 0.314457 11.5052 0.314455C11.5035 0.314454 11.5022 0.314454 11.5014 0.314453C11.5009 0.314453 11.5006 0.314453 11.5004 0.314453C11.5003 0.314453 11.5002 0.314453 11.5001 0.314453C11.5 0.314453 11.5 0.314453 11.5 0.814453C11.5 1.31445 11.5 1.31445 11.5 1.31445C11.5001 1.31445 11.5002 1.31445 11.5002 1.31445C11.5004 1.31445 11.5007 1.31445 11.5011 1.31445C11.5019 1.31445 11.5031 1.31445 11.5047 1.31445C11.5079 1.31446 11.5127 1.31446 11.5191 1.31447C11.5319 1.31448 11.5509 1.31451 11.5759 1.31456C11.6259 1.31468 11.6996 1.3149 11.7941 1.31534C11.9831 1.31624 12.2552 1.31802 12.5872 1.3216C13.2513 1.32875 14.1539 1.34304 15.1089 1.3716C16.0647 1.40019 17.0689 1.44296 17.9375 1.50675C18.8202 1.57158 19.5204 1.65555 19.8935 1.75619L20.154 0.790712ZM11.5 0.814453C11.5 0.314453 11.5 0.314453 11.4999 0.314453C11.4998 0.314453 11.4997 0.314453 11.4996 0.314453C11.4994 0.314453 11.4991 0.314453 11.4986 0.314453C11.4977 0.314454 11.4965 0.314454 11.4948 0.314455C11.4914 0.314457 11.4864 0.31446 11.4798 0.314467C11.4667 0.314482 11.4472 0.31451 11.4219 0.314566C11.3711 0.314679 11.2965 0.314905 11.2012 0.315355C11.0104 0.316256 10.7363 0.318056 10.402 0.321654C9.73379 0.328848 8.82446 0.34324 7.86119 0.372052C6.89872 0.400839 5.87835 0.444136 4.98923 0.509437C4.11424 0.573699 3.32363 0.661859 2.84601 0.790712L3.10648 1.75619C3.47955 1.65555 4.17975 1.57158 5.06247 1.50675C5.93106 1.44296 6.93529 1.40019 7.89109 1.3716C8.84608 1.34304 9.74868 1.32875 10.4128 1.3216C10.7448 1.31802 11.0169 1.31624 11.2059 1.31534C11.3004 1.3149 11.3741 1.31468 11.4241 1.31456C11.4491 1.31451 11.4681 1.31448 11.4809 1.31447C11.4873 1.31446 11.4921 1.31446 11.4953 1.31445C11.4969 1.31445 11.4981 1.31445 11.4989 1.31445C11.4993 1.31445 11.4996 1.31445 11.4998 1.31445C11.4998 1.31445 11.4999 1.31445 11.5 1.31445C11.5 1.31445 11.5 1.31445 11.5 0.814453ZM2.84484 0.79103C2.29688 0.940288 1.79776 1.2309 1.39746 1.63377L2.10682 2.33861C2.38362 2.06004 2.72875 1.85909 3.10765 1.75588L2.84484 0.79103ZM1.39746 1.63377C0.997163 2.03663 0.709745 2.53761 0.563994 3.08651L1.5305 3.34315C1.63129 2.96359 1.83003 2.61718 2.10682 2.33861L1.39746 1.63377ZM0.564088 3.08615C0.321035 3.9988 0.20582 5.36829 0.148909 6.47384C0.12007 7.03407 0.105669 7.53968 0.0984696 7.9052C0.0948675 8.08807 0.0930624 8.23615 0.0921576 8.3388C0.0917052 8.39013 0.0914777 8.43012 0.0913633 8.45744C0.0913061 8.4711 0.0912771 8.48159 0.0912625 8.48875C0.0912552 8.49234 0.0912515 8.49508 0.0912496 8.49698C0.0912486 8.49792 0.0912481 8.49866 0.0912478 8.49918C0.0912477 8.49943 0.0912476 8.49964 0.0912476 8.49979C0.0912476 8.49986 0.0912476 8.49994 0.0912476 8.49997C0.0912476 8.50003 0.0912476 8.50008 0.591248 8.50008C1.09125 8.50008 1.09125 8.5001 1.09125 8.5001C1.09125 8.50008 1.09125 8.50007 1.09125 8.50004C1.09125 8.49997 1.09125 8.49985 1.09125 8.49968C1.09125 8.49933 1.09125 8.49876 1.09125 8.49799C1.09125 8.49643 1.09125 8.49403 1.09126 8.4908C1.09127 8.48433 1.0913 8.47455 1.09135 8.46163C1.09146 8.43577 1.09168 8.39732 1.09212 8.34761C1.093 8.24818 1.09475 8.10374 1.09828 7.92489C1.10533 7.56696 1.11943 7.0723 1.14759 6.52525C1.20468 5.41624 1.31746 4.1431 1.53041 3.3435L0.564088 3.08615ZM0.591248 8.50008C0.0912476 8.50008 0.0912476 8.50012 0.0912476 8.50018C0.0912476 8.50022 0.0912476 8.50029 0.0912476 8.50037C0.0912476 8.50052 0.0912477 8.50072 0.0912478 8.50098C0.0912481 8.5015 0.0912486 8.50223 0.0912496 8.50318C0.0912515 8.50507 0.0912552 8.50782 0.0912625 8.5114C0.0912771 8.51856 0.0913061 8.52906 0.0913633 8.54272C0.0914777 8.57003 0.0917052 8.61002 0.0921576 8.66136C0.0930624 8.76401 0.0948675 8.91209 0.0984696 9.09497C0.105669 9.46049 0.12007 9.96611 0.148909 10.5264C0.20582 11.632 0.321036 13.0015 0.564081 13.9144L1.53041 13.6571C1.31746 12.8573 1.20468 11.584 1.14759 10.475C1.11943 9.92788 1.10533 9.43321 1.09828 9.07527C1.09475 8.89642 1.093 8.75198 1.09212 8.65254C1.09168 8.60283 1.09146 8.56439 1.09135 8.53853C1.0913 8.5256 1.09127 8.51582 1.09126 8.50936C1.09125 8.50613 1.09125 8.50372 1.09125 8.50217C1.09125 8.50139 1.09125 8.50083 1.09125 8.50048C1.09125 8.5003 1.09125 8.50018 1.09125 8.50012C1.09125 8.50008 1.09125 8.50007 1.09125 8.50006C1.09125 8.50006 1.09125 8.50008 0.591248 8.50008ZM0.563994 13.914C0.709745 14.4629 0.997163 14.9639 1.39746 15.3668L2.10682 14.6619C1.83003 14.3833 1.63129 14.0369 1.5305 13.6574L0.563994 13.914ZM1.39746 15.3668C1.79776 15.7696 2.29688 16.0602 2.84484 16.2095L3.10765 15.2447C2.72875 15.1414 2.38362 14.9405 2.10682 14.6619L1.39746 15.3668ZM2.84611 16.2098C3.32369 16.3386 4.11427 16.4267 4.98926 16.4909C5.87837 16.5561 6.89874 16.5994 7.8612 16.6282C8.82447 16.6569 9.73379 16.6713 10.402 16.6785C10.7363 16.6821 11.0104 16.6839 11.2012 16.6848C11.2965 16.6853 11.3711 16.6855 11.4219 16.6856C11.4472 16.6856 11.4667 16.6857 11.4798 16.6857C11.4864 16.6857 11.4914 16.6857 11.4948 16.6857C11.4965 16.6857 11.4977 16.6857 11.4986 16.6857C11.4991 16.6857 11.4994 16.6857 11.4996 16.6857C11.4997 16.6857 11.4998 16.6857 11.4999 16.6857C11.5 16.6857 11.5 16.6857 11.5 16.1857C11.5 15.6857 11.5 15.6857 11.5 15.6857C11.4999 15.6857 11.4998 15.6857 11.4998 15.6857C11.4996 15.6857 11.4993 15.6857 11.4989 15.6857C11.4981 15.6857 11.4969 15.6857 11.4953 15.6857C11.4921 15.6857 11.4873 15.6857 11.4809 15.6857C11.4681 15.6857 11.4491 15.6856 11.4241 15.6856C11.3741 15.6855 11.3004 15.6853 11.2059 15.6848C11.0169 15.6839 10.7448 15.6821 10.4128 15.6786C9.74868 15.6714 8.84607 15.6571 7.89107 15.6286C6.93527 15.6 5.93104 15.5573 5.06244 15.4936C4.17972 15.4288 3.47949 15.3449 3.10638 15.2443L2.84611 16.2098ZM11.5 16.1857C11.5 16.6857 11.5 16.6857 11.5001 16.6857C11.5002 16.6857 11.5003 16.6857 11.5004 16.6857C11.5006 16.6857 11.5009 16.6857 11.5014 16.6857C11.5022 16.6857 11.5035 16.6857 11.5052 16.6857C11.5086 16.6857 11.5136 16.6857 11.5202 16.6857C11.5333 16.6857 11.5528 16.6856 11.5781 16.6856C11.6289 16.6855 11.7035 16.6853 11.7988 16.6848C11.9896 16.6839 12.2637 16.6821 12.598 16.6785C13.2662 16.6713 14.1755 16.6569 15.1388 16.6282C16.1013 16.5994 17.1216 16.5561 18.0107 16.4909C18.8857 16.4267 19.6763 16.3386 20.1539 16.2098L19.8936 15.2443C19.5205 15.3449 18.8203 15.4288 17.9375 15.4936C17.069 15.5573 16.0647 15.6 15.1089 15.6286C14.1539 15.6571 13.2513 15.6714 12.5872 15.6786C12.2552 15.6821 11.9831 15.6839 11.7941 15.6848C11.6996 15.6853 11.6259 15.6855 11.5759 15.6856C11.5509 15.6856 11.5319 15.6857 11.5191 15.6857C11.5127 15.6857 11.5079 15.6857 11.5047 15.6857C11.5031 15.6857 11.5019 15.6857 11.5011 15.6857C11.5007 15.6857 11.5004 15.6857 11.5002 15.6857C11.5002 15.6857 11.5001 15.6857 11.5 15.6857C11.5 15.6857 11.5 15.6857 11.5 16.1857ZM20.1552 16.2095C20.7031 16.0602 21.2022 15.7696 21.6025 15.3668L20.8932 14.6619C20.6164 14.9405 20.2712 15.1414 19.8923 15.2447L20.1552 16.2095ZM21.6025 15.3668C22.0028 14.9639 22.2902 14.4629 22.436 13.914L21.4695 13.6574C21.3687 14.0369 21.17 14.3833 20.8932 14.6619L21.6025 15.3668ZM22.4359 13.9144C22.679 13.0015 22.7942 11.632 22.8511 10.5264C22.8799 9.96611 22.8943 9.46049 22.9015 9.09497C22.9051 8.91209 22.9069 8.76401 22.9078 8.66136C22.9083 8.61002 22.9085 8.57003 22.9086 8.54272C22.9087 8.52906 22.9087 8.51856 22.9087 8.5114C22.9087 8.50782 22.9087 8.50507 22.9087 8.50318C22.9087 8.50223 22.9087 8.5015 22.9087 8.50098C22.9087 8.50072 22.9087 8.50052 22.9087 8.50037C22.9087 8.50029 22.9087 8.50022 22.9087 8.50018C22.9087 8.50012 22.9087 8.50008 22.4087 8.50008C21.9087 8.50008 21.9087 8.50006 21.9087 8.50006C21.9087 8.50007 21.9087 8.50008 21.9087 8.50012C21.9087 8.50018 21.9087 8.5003 21.9087 8.50048C21.9087 8.50083 21.9087 8.50139 21.9087 8.50217C21.9087 8.50372 21.9087 8.50613 21.9087 8.50936C21.9087 8.51582 21.9087 8.5256 21.9086 8.53853C21.9085 8.56439 21.9083 8.60283 21.9079 8.65254C21.907 8.75198 21.9052 8.89642 21.9017 9.07527C21.8947 9.43321 21.8806 9.92788 21.8524 10.475C21.7953 11.584 21.6825 12.8573 21.4696 13.6571L22.4359 13.9144ZM22.4087 8.50008C22.9087 8.50008 22.9087 8.50003 22.9087 8.49997C22.9087 8.49994 22.9087 8.49986 22.9087 8.49979C22.9087 8.49964 22.9087 8.49943 22.9087 8.49918C22.9087 8.49866 22.9087 8.49792 22.9087 8.49698C22.9087 8.49508 22.9087 8.49234 22.9087 8.48875C22.9087 8.48159 22.9087 8.4711 22.9086 8.45744C22.9085 8.43012 22.9083 8.39013 22.9078 8.3388C22.9069 8.23615 22.9051 8.08807 22.9015 7.9052C22.8943 7.53968 22.8799 7.03407 22.8511 6.47384C22.7942 5.36829 22.679 3.9988 22.4359 3.08615L21.4696 3.3435C21.6825 4.1431 21.7953 5.41624 21.8524 6.52525C21.8806 7.0723 21.8947 7.56696 21.9017 7.92489C21.9052 8.10374 21.907 8.24818 21.9079 8.34761C21.9083 8.39732 21.9085 8.43577 21.9086 8.46163C21.9087 8.47455 21.9087 8.48433 21.9087 8.4908C21.9087 8.49403 21.9087 8.49643 21.9087 8.49799C21.9087 8.49876 21.9087 8.49933 21.9087 8.49968C21.9087 8.49985 21.9087 8.49997 21.9087 8.50004C21.9087 8.50007 21.9087 8.50008 21.9087 8.5001C21.9087 8.5001 21.9087 8.50008 22.4087 8.50008ZM9.51597 12.1784L15.2182 8.93468L14.7238 8.06548L9.02152 11.3092L9.51597 12.1784ZM15.2182 8.06548L9.51597 4.82173L9.02152 5.69093L14.7238 8.93468L15.2182 8.06548ZM8.76875 5.25633V11.7438H9.76875V5.25633H8.76875Z" fill="black"/>
</svg>
